<?xml version="1.0" encoding="UTF-8"?>
<svg xmlns="http://www.w3.org/2000/svg" width="2400" height="1685" viewBox="0 0 2400 1685" role="img" aria-label="流水线 Load-Use 测试：访存等待、气泡与恢复">
  <title>流水线 Load-Use 测试：访存等待、气泡与恢复</title>
  <desc>流水线 Load-Use 测试：访存等待、气泡与恢复; generated directly from 06_pipeline_load_use_hazard.vcd</desc>
  <defs>
    <filter id="shadow" x="-20%" y="-20%" width="140%" height="150%">
      <feDropShadow dx="0" dy="5" stdDeviation="8" flood-color="#0f172a" flood-opacity="0.12"/>
    </filter>
    <marker id="arrowBlue" viewBox="0 0 10 10" refX="9" refY="5" markerWidth="8" markerHeight="8" orient="auto">
      <path d="M0,0 L10,5 L0,10 z" fill="#2563eb"/>
    </marker>
    <marker id="arrowOrange" viewBox="0 0 10 10" refX="9" refY="5" markerWidth="8" markerHeight="8" orient="auto">
      <path d="M0,0 L10,5 L0,10 z" fill="#d97706"/>
    </marker>
    <marker id="arrowPurple" viewBox="0 0 10 10" refX="9" refY="5" markerWidth="8" markerHeight="8" orient="auto">
      <path d="M0,0 L10,5 L0,10 z" fill="#7c3aed"/>
    </marker>
    <marker id="arrowInk" viewBox="0 0 10 10" refX="9" refY="5" markerWidth="7" markerHeight="7" orient="auto">
      <path d="M0,0 L10,5 L0,10 z" fill="#111827"/>
    </marker>
    <marker id="arrowRed" viewBox="0 0 10 10" refX="9" refY="5" markerWidth="7" markerHeight="7" orient="auto">
      <path d="M0,0 L10,5 L0,10 z" fill="#b91c1c"/>
    </marker>
    <style>
      text { font-family: "Microsoft YaHei", "Noto Sans SC", Arial, sans-serif; }
      .mono { font-family: "Cascadia Mono", Consolas, monospace; }
    </style>
  </defs>
  <rect width="2400" height="1685" fill="#ffffff"/>
  <text x="54" y="62" font-size="42" font-weight="800" fill="#162033">流水线 Load-Use 测试：访存等待、气泡与恢复</text>
<text x="54" y="104" font-size="24" fill="#64748b">程序序列为 LW x2,0(x1) → ADDI x3,x2,1；本次波形由 memory_freeze 处理等待，load_use_hazard 保持低电平</text>
<rect x="48" y="132" width="2304" height="54" rx="12" fill="#f8fafc" stroke="#dbe4f0"/>
<text x="70" y="167" font-size="21" fill="#162033">VCD: 06_pipeline_load_use_hazard.vcd · timescale 1ps · window 45000–205000 ticks</text>
<line x1="532" y1="193" x2="532" y2="1585" stroke="#dbe4f0" stroke-width="1.4"/>
<text x="532" y="185" text-anchor="middle" font-size="17" fill="#64748b">45000</text>
<line x1="714" y1="193" x2="714" y2="1585" stroke="#dbe4f0" stroke-width="1.4"/>
<text x="714" y="185" text-anchor="middle" font-size="17" fill="#64748b">61000</text>
<line x1="896" y1="193" x2="896" y2="1585" stroke="#dbe4f0" stroke-width="1.4"/>
<text x="896" y="185" text-anchor="middle" font-size="17" fill="#64748b">77000</text>
<line x1="1078" y1="193" x2="1078" y2="1585" stroke="#dbe4f0" stroke-width="1.4"/>
<text x="1078" y="185" text-anchor="middle" font-size="17" fill="#64748b">93000</text>
<line x1="1260" y1="193" x2="1260" y2="1585" stroke="#dbe4f0" stroke-width="1.4"/>
<text x="1260" y="185" text-anchor="middle" font-size="17" fill="#64748b">109000</text>
<line x1="1442" y1="193" x2="1442" y2="1585" stroke="#dbe4f0" stroke-width="1.4"/>
<text x="1442" y="185" text-anchor="middle" font-size="17" fill="#64748b">125000</text>
<line x1="1624" y1="193" x2="1624" y2="1585" stroke="#dbe4f0" stroke-width="1.4"/>
<text x="1624" y="185" text-anchor="middle" font-size="17" fill="#64748b">141000</text>
<line x1="1806" y1="193" x2="1806" y2="1585" stroke="#dbe4f0" stroke-width="1.4"/>
<text x="1806" y="185" text-anchor="middle" font-size="17" fill="#64748b">157000</text>
<line x1="1988" y1="193" x2="1988" y2="1585" stroke="#dbe4f0" stroke-width="1.4"/>
<text x="1988" y="185" text-anchor="middle" font-size="17" fill="#64748b">173000</text>
<line x1="2170" y1="193" x2="2170" y2="1585" stroke="#dbe4f0" stroke-width="1.4"/>
<text x="2170" y="185" text-anchor="middle" font-size="17" fill="#64748b">189000</text>
<line x1="2352" y1="193" x2="2352" y2="1585" stroke="#dbe4f0" stroke-width="1.4"/>
<text x="2352" y="185" text-anchor="middle" font-size="17" fill="#64748b">205000</text>
<rect x="48" y="205" width="2304" height="86" fill="#ffffff"/>
<line x1="48" y1="291" x2="2352" y2="291" stroke="#dbe4f0"/>
<text x="68" y="239" font-size="23" font-weight="750" fill="#162033" class="mono">clk</text>
<text x="68" y="267" font-size="16" fill="#64748b" class="mono">clk [1 bit]</text>
<path d="M 532 226 L 588.875 226 L 588.875 270 L 645.75 270 L 645.75 226 L 702.625 226 L 702.625 270 L 759.5 270 L 759.5 226 L 816.375 226 L 816.375 270 L 873.25 270 L 873.25 226 L 930.125 226 L 930.125 270 L 987 270 L 987 226 L 1043.875 226 L 1043.875 270 L 1100.75 270 L 1100.75 226 L 1157.625 226 L 1157.625 270 L 1214.5 270 L 1214.5 226 L 1271.375 226 L 1271.375 270 L 1328.25 270 L 1328.25 226 L 1385.125 226 L 1385.125 270 L 1442 270 L 1442 226 L 1498.875 226 L 1498.875 270 L 1555.75 270 L 1555.75 226 L 1612.625 226 L 1612.625 270 L 1669.5 270 L 1669.5 226 L 1726.375 226 L 1726.375 270 L 1783.25 270 L 1783.25 226 L 1840.125 226 L 1840.125 270 L 1897 270 L 1897 226 L 1953.875 226 L 1953.875 270 L 2010.75 270 L 2010.75 226 L 2067.625 226 L 2067.625 270 L 2124.5 270 L 2124.5 226 L 2181.375 226 L 2181.375 270 L 2238.25 270 L 2238.25 226 L 2295.125 226 L 2295.125 270 L 2352 270" fill="none" stroke="#2563eb" stroke-width="4" stroke-linejoin="round"/>
<rect x="48" y="291" width="2304" height="86" fill="#f8fafc"/>
<line x1="48" y1="377" x2="2352" y2="377" stroke="#dbe4f0"/>
<text x="68" y="325" font-size="23" font-weight="750" fill="#162033" class="mono">pc</text>
<text x="68" y="353" font-size="16" fill="#64748b" class="mono">pc [32 bit]</text>
<rect x="532" y="309" width="796.25" height="50" fill="#f5f3ff" stroke="#7c3aed" stroke-width="2"/>
<text x="930.125" y="341" text-anchor="middle" font-size="18" font-weight="650" fill="#162033" class="mono">0x00000008</text>
<rect x="1328.25" y="309" width="113.75" height="50" fill="#f5f3ff" stroke="#7c3aed" stroke-width="2"/>
<text x="1385.125" y="341" text-anchor="middle" font-size="18" font-weight="650" fill="#162033" class="mono">0x0000000c</text>
<rect x="1442" y="309" width="113.75" height="50" fill="#f5f3ff" stroke="#7c3aed" stroke-width="2"/>
<text x="1498.875" y="341" text-anchor="middle" font-size="18" font-weight="650" fill="#162033" class="mono">0x00000010</text>
<rect x="1555.75" y="309" width="113.75" height="50" fill="#f5f3ff" stroke="#7c3aed" stroke-width="2"/>
<text x="1612.625" y="341" text-anchor="middle" font-size="18" font-weight="650" fill="#162033" class="mono">0x00000014</text>
<rect x="1669.5" y="309" width="113.75" height="50" fill="#f5f3ff" stroke="#7c3aed" stroke-width="2"/>
<text x="1726.375" y="341" text-anchor="middle" font-size="18" font-weight="650" fill="#162033" class="mono">0x00000018</text>
<rect x="1783.25" y="309" width="113.75" height="50" fill="#f5f3ff" stroke="#7c3aed" stroke-width="2"/>
<text x="1840.125" y="341" text-anchor="middle" font-size="18" font-weight="650" fill="#162033" class="mono">0x00000010</text>
<rect x="1897" y="309" width="113.75" height="50" fill="#f5f3ff" stroke="#7c3aed" stroke-width="2"/>
<text x="1953.875" y="341" text-anchor="middle" font-size="18" font-weight="650" fill="#162033" class="mono">0x00000014</text>
<rect x="2010.75" y="309" width="113.75" height="50" fill="#f5f3ff" stroke="#7c3aed" stroke-width="2"/>
<text x="2067.625" y="341" text-anchor="middle" font-size="18" font-weight="650" fill="#162033" class="mono">0x00000018</text>
<rect x="2124.5" y="309" width="113.75" height="50" fill="#f5f3ff" stroke="#7c3aed" stroke-width="2"/>
<text x="2181.375" y="341" text-anchor="middle" font-size="18" font-weight="650" fill="#162033" class="mono">0x00000010</text>
<rect x="2238.25" y="309" width="113.75" height="50" fill="#f5f3ff" stroke="#7c3aed" stroke-width="2"/>
<text x="2295.125" y="341" text-anchor="middle" font-size="18" font-weight="650" fill="#162033" class="mono">0x00000014</text>
<rect x="48" y="377" width="2304" height="86" fill="#ffffff"/>
<line x1="48" y1="463" x2="2352" y2="463" stroke="#dbe4f0"/>
<text x="68" y="411" font-size="23" font-weight="750" fill="#162033" class="mono">id_pc</text>
<text x="68" y="439" font-size="16" fill="#64748b" class="mono">id_pc [32 bit]</text>
<rect x="532" y="395" width="113.75" height="50" fill="#eff6ff" stroke="#2563eb" stroke-width="2"/>
<text x="588.875" y="427" text-anchor="middle" font-size="18" font-weight="650" fill="#162033" class="mono">0x00000004</text>
<rect x="645.75" y="395" width="796.25" height="50" fill="#eff6ff" stroke="#2563eb" stroke-width="2"/>
<text x="1043.875" y="427" text-anchor="middle" font-size="18" font-weight="650" fill="#162033" class="mono">0x00000008</text>
<rect x="1442" y="395" width="113.75" height="50" fill="#eff6ff" stroke="#2563eb" stroke-width="2"/>
<text x="1498.875" y="427" text-anchor="middle" font-size="18" font-weight="650" fill="#162033" class="mono">0x0000000c</text>
<rect x="1555.75" y="395" width="113.75" height="50" fill="#eff6ff" stroke="#2563eb" stroke-width="2"/>
<text x="1612.625" y="427" text-anchor="middle" font-size="18" font-weight="650" fill="#162033" class="mono">0x00000010</text>
<rect x="1669.5" y="395" width="113.75" height="50" fill="#eff6ff" stroke="#2563eb" stroke-width="2"/>
<text x="1726.375" y="427" text-anchor="middle" font-size="18" font-weight="650" fill="#162033" class="mono">0x00000014</text>
<rect x="1783.25" y="395" width="113.75" height="50" fill="#eff6ff" stroke="#2563eb" stroke-width="2"/>
<text x="1840.125" y="427" text-anchor="middle" font-size="18" font-weight="650" fill="#162033" class="mono">0x00000000</text>
<rect x="1897" y="395" width="113.75" height="50" fill="#eff6ff" stroke="#2563eb" stroke-width="2"/>
<text x="1953.875" y="427" text-anchor="middle" font-size="18" font-weight="650" fill="#162033" class="mono">0x00000010</text>
<rect x="2010.75" y="395" width="113.75" height="50" fill="#eff6ff" stroke="#2563eb" stroke-width="2"/>
<text x="2067.625" y="427" text-anchor="middle" font-size="18" font-weight="650" fill="#162033" class="mono">0x00000014</text>
<rect x="2124.5" y="395" width="113.75" height="50" fill="#eff6ff" stroke="#2563eb" stroke-width="2"/>
<text x="2181.375" y="427" text-anchor="middle" font-size="18" font-weight="650" fill="#162033" class="mono">0x00000000</text>
<rect x="2238.25" y="395" width="113.75" height="50" fill="#eff6ff" stroke="#2563eb" stroke-width="2"/>
<text x="2295.125" y="427" text-anchor="middle" font-size="18" font-weight="650" fill="#162033" class="mono">0x00000010</text>
<rect x="48" y="463" width="2304" height="86" fill="#f8fafc"/>
<line x1="48" y1="549" x2="2352" y2="549" stroke="#dbe4f0"/>
<text x="68" y="497" font-size="23" font-weight="750" fill="#162033" class="mono">id_inst</text>
<text x="68" y="525" font-size="16" fill="#64748b" class="mono">id_inst [32 bit]</text>
<rect x="532" y="481" width="113.75" height="50" fill="#f5f3ff" stroke="#7c3aed" stroke-width="2"/>
<text x="588.875" y="513" text-anchor="middle" font-size="18" font-weight="650" fill="#162033" class="mono">0x0000a103</text>
<rect x="645.75" y="481" width="796.25" height="50" fill="#f5f3ff" stroke="#7c3aed" stroke-width="2"/>
<text x="1043.875" y="513" text-anchor="middle" font-size="18" font-weight="650" fill="#162033" class="mono">0x00110193</text>
<rect x="1442" y="481" width="113.75" height="50" fill="#f5f3ff" stroke="#7c3aed" stroke-width="2"/>
<text x="1498.875" y="513" text-anchor="middle" font-size="18" font-weight="650" fill="#162033" class="mono">0x00218213</text>
<rect x="1555.75" y="481" width="113.75" height="50" fill="#f5f3ff" stroke="#7c3aed" stroke-width="2"/>
<text x="1612.625" y="513" text-anchor="middle" font-size="18" font-weight="650" fill="#162033" class="mono">0x0000006f</text>
<rect x="1669.5" y="481" width="113.75" height="50" fill="#f5f3ff" stroke="#7c3aed" stroke-width="2"/>
<text x="1726.375" y="513" text-anchor="middle" font-size="18" font-weight="650" fill="#162033" class="mono">0x00000013</text>
<rect x="1783.25" y="481" width="113.75" height="50" fill="#f5f3ff" stroke="#7c3aed" stroke-width="2"/>
<text x="1840.125" y="513" text-anchor="middle" font-size="18" font-weight="650" fill="#162033" class="mono">0x00000000</text>
<rect x="1897" y="481" width="113.75" height="50" fill="#f5f3ff" stroke="#7c3aed" stroke-width="2"/>
<text x="1953.875" y="513" text-anchor="middle" font-size="18" font-weight="650" fill="#162033" class="mono">0x0000006f</text>
<rect x="2010.75" y="481" width="113.75" height="50" fill="#f5f3ff" stroke="#7c3aed" stroke-width="2"/>
<text x="2067.625" y="513" text-anchor="middle" font-size="18" font-weight="650" fill="#162033" class="mono">0x00000013</text>
<rect x="2124.5" y="481" width="113.75" height="50" fill="#f5f3ff" stroke="#7c3aed" stroke-width="2"/>
<text x="2181.375" y="513" text-anchor="middle" font-size="18" font-weight="650" fill="#162033" class="mono">0x00000000</text>
<rect x="2238.25" y="481" width="113.75" height="50" fill="#f5f3ff" stroke="#7c3aed" stroke-width="2"/>
<text x="2295.125" y="513" text-anchor="middle" font-size="18" font-weight="650" fill="#162033" class="mono">0x0000006f</text>
<rect x="48" y="549" width="2304" height="86" fill="#ffffff"/>
<line x1="48" y1="635" x2="2352" y2="635" stroke="#dbe4f0"/>
<text x="68" y="583" font-size="23" font-weight="750" fill="#162033" class="mono">ex_pc</text>
<text x="68" y="611" font-size="16" fill="#64748b" class="mono">ex_pc [32 bit]</text>
<rect x="532" y="567" width="113.75" height="50" fill="#eff6ff" stroke="#2563eb" stroke-width="2"/>
<text x="588.875" y="599" text-anchor="middle" font-size="18" font-weight="650" fill="#162033" class="mono">0x00000000</text>
<rect x="645.75" y="567" width="113.75" height="50" fill="#eff6ff" stroke="#2563eb" stroke-width="2"/>
<text x="702.625" y="599" text-anchor="middle" font-size="18" font-weight="650" fill="#162033" class="mono">0x00000004</text>
<rect x="759.5" y="567" width="796.25" height="50" fill="#eff6ff" stroke="#2563eb" stroke-width="2"/>
<text x="1157.625" y="599" text-anchor="middle" font-size="18" font-weight="650" fill="#162033" class="mono">0x00000008</text>
<rect x="1555.75" y="567" width="113.75" height="50" fill="#eff6ff" stroke="#2563eb" stroke-width="2"/>
<text x="1612.625" y="599" text-anchor="middle" font-size="18" font-weight="650" fill="#162033" class="mono">0x0000000c</text>
<rect x="1669.5" y="567" width="113.75" height="50" fill="#eff6ff" stroke="#2563eb" stroke-width="2"/>
<text x="1726.375" y="599" text-anchor="middle" font-size="18" font-weight="650" fill="#162033" class="mono">0x00000010</text>
<rect x="1783.25" y="567" width="227.5" height="50" fill="#eff6ff" stroke="#2563eb" stroke-width="2"/>
<text x="1897" y="599" text-anchor="middle" font-size="18" font-weight="650" fill="#162033" class="mono">0x00000000</text>
<rect x="2010.75" y="567" width="113.75" height="50" fill="#eff6ff" stroke="#2563eb" stroke-width="2"/>
<text x="2067.625" y="599" text-anchor="middle" font-size="18" font-weight="650" fill="#162033" class="mono">0x00000010</text>
<rect x="2124.5" y="567" width="227.5" height="50" fill="#eff6ff" stroke="#2563eb" stroke-width="2"/>
<text x="2238.25" y="599" text-anchor="middle" font-size="18" font-weight="650" fill="#162033" class="mono">0x00000000</text>
<rect x="48" y="635" width="2304" height="86" fill="#f8fafc"/>
<line x1="48" y1="721" x2="2352" y2="721" stroke="#dbe4f0"/>
<text x="68" y="669" font-size="23" font-weight="750" fill="#162033" class="mono">ex_rd</text>
<text x="68" y="697" font-size="16" fill="#64748b" class="mono">ex_rd [5 bit]</text>
<rect x="532" y="653" width="113.75" height="50" fill="#eff6ff" stroke="#2563eb" stroke-width="2"/>
<text x="588.875" y="685" text-anchor="middle" font-size="18" font-weight="650" fill="#162033" class="mono">0x01</text>
<rect x="645.75" y="653" width="113.75" height="50" fill="#eff6ff" stroke="#2563eb" stroke-width="2"/>
<text x="702.625" y="685" text-anchor="middle" font-size="18" font-weight="650" fill="#162033" class="mono">0x02</text>
<rect x="759.5" y="653" width="796.25" height="50" fill="#eff6ff" stroke="#2563eb" stroke-width="2"/>
<text x="1157.625" y="685" text-anchor="middle" font-size="18" font-weight="650" fill="#162033" class="mono">0x03</text>
<rect x="1555.75" y="653" width="113.75" height="50" fill="#eff6ff" stroke="#2563eb" stroke-width="2"/>
<text x="1612.625" y="685" text-anchor="middle" font-size="18" font-weight="650" fill="#162033" class="mono">0x04</text>
<rect x="1669.5" y="653" width="682.5" height="50" fill="#eff6ff" stroke="#2563eb" stroke-width="2"/>
<text x="2010.75" y="685" text-anchor="middle" font-size="18" font-weight="650" fill="#162033" class="mono">0x00</text>
<rect x="48" y="721" width="2304" height="86" fill="#ffffff"/>
<line x1="48" y1="807" x2="2352" y2="807" stroke="#dbe4f0"/>
<text x="68" y="755" font-size="23" font-weight="750" fill="#162033" class="mono">load_use_hazard</text>
<text x="68" y="783" font-size="16" fill="#64748b" class="mono">load_use_hazard [1 bit]</text>
<path d="M 532 786 L 2352 786" fill="none" stroke="#dc2626" stroke-width="4" stroke-linejoin="round"/>
<rect x="48" y="807" width="2304" height="86" fill="#f8fafc"/>
<line x1="48" y1="893" x2="2352" y2="893" stroke="#dbe4f0"/>
<text x="68" y="841" font-size="23" font-weight="750" fill="#162033" class="mono">stall_if</text>
<text x="68" y="869" font-size="16" fill="#64748b" class="mono">stall_if [1 bit]</text>
<path d="M 532 872 L 759.5 872 L 759.5 828 L 1214.5 828 L 1214.5 872 L 2352 872" fill="none" stroke="#dc2626" stroke-width="4" stroke-linejoin="round"/>
<rect x="48" y="893" width="2304" height="86" fill="#ffffff"/>
<line x1="48" y1="979" x2="2352" y2="979" stroke="#dbe4f0"/>
<text x="68" y="927" font-size="23" font-weight="750" fill="#162033" class="mono">id_valid_for_ex</text>
<text x="68" y="955" font-size="16" fill="#64748b" class="mono">id_valid_for_ex [1 bit]</text>
<path d="M 532 914 L 645.75 914 L 645.75 958 L 1328.25 958 L 1328.25 914 L 1783.25 914 L 1783.25 958 L 1897 958 L 1897 914 L 2124.5 914 L 2124.5 958 L 2238.25 958 L 2238.25 914 L 2352 914" fill="none" stroke="#d97706" stroke-width="4" stroke-linejoin="round"/>
<rect x="48" y="979" width="2304" height="86" fill="#f8fafc"/>
<line x1="48" y1="1065" x2="2352" y2="1065" stroke="#dbe4f0"/>
<text x="68" y="1013" font-size="23" font-weight="750" fill="#162033" class="mono">memory_freeze</text>
<text x="68" y="1041" font-size="16" fill="#64748b" class="mono">memory_freeze [1 bit]</text>
<path d="M 532 1044 L 759.5 1044 L 759.5 1000 L 1214.5 1000 L 1214.5 1044 L 2352 1044" fill="none" stroke="#d97706" stroke-width="4" stroke-linejoin="round"/>
<rect x="48" y="1065" width="2304" height="86" fill="#ffffff"/>
<line x1="48" y1="1151" x2="2352" y2="1151" stroke="#dbe4f0"/>
<text x="68" y="1099" font-size="23" font-weight="750" fill="#162033" class="mono">daccess_ren</text>
<text x="68" y="1127" font-size="16" fill="#64748b" class="mono">daccess_ren [4 bit]</text>
<rect x="532" y="1083" width="227.5" height="50" fill="#fff7ed" stroke="#d97706" stroke-width="2"/>
<text x="645.75" y="1115" text-anchor="middle" font-size="18" font-weight="650" fill="#162033" class="mono">0x0</text>
<rect x="759.5" y="1083" width="568.75" height="50" fill="#fff7ed" stroke="#d97706" stroke-width="2"/>
<text x="1043.875" y="1115" text-anchor="middle" font-size="18" font-weight="650" fill="#162033" class="mono">0xf</text>
<rect x="1328.25" y="1083" width="1023.75" height="50" fill="#fff7ed" stroke="#d97706" stroke-width="2"/>
<text x="1840.125" y="1115" text-anchor="middle" font-size="18" font-weight="650" fill="#162033" class="mono">0x0</text>
<rect x="48" y="1151" width="2304" height="86" fill="#f8fafc"/>
<line x1="48" y1="1237" x2="2352" y2="1237" stroke="#dbe4f0"/>
<text x="68" y="1185" font-size="23" font-weight="750" fill="#162033" class="mono">daccess_rvalid</text>
<text x="68" y="1213" font-size="16" fill="#64748b" class="mono">daccess_rvalid [1 bit]</text>
<path d="M 532 1216 L 1214.5 1216 L 1214.5 1172 L 1328.25 1172 L 1328.25 1216 L 2352 1216" fill="none" stroke="#059669" stroke-width="4" stroke-linejoin="round"/>
<rect x="48" y="1237" width="2304" height="86" fill="#ffffff"/>
<line x1="48" y1="1323" x2="2352" y2="1323" stroke="#dbe4f0"/>
<text x="68" y="1271" font-size="23" font-weight="750" fill="#162033" class="mono">daccess_rdata</text>
<text x="68" y="1299" font-size="16" fill="#64748b" class="mono">daccess_rdata [32 bit]</text>
<rect x="532" y="1255" width="682.5" height="50" fill="#ecfdf5" stroke="#059669" stroke-width="2"/>
<text x="873.25" y="1287" text-anchor="middle" font-size="18" font-weight="650" fill="#162033" class="mono">0x00000000</text>
<rect x="1214.5" y="1255" width="1137.5" height="50" fill="#ecfdf5" stroke="#059669" stroke-width="2"/>
<text x="1783.25" y="1287" text-anchor="middle" font-size="18" font-weight="650" fill="#162033" class="mono">0x0000002a</text>
<rect x="48" y="1323" width="2304" height="86" fill="#f8fafc"/>
<line x1="48" y1="1409" x2="2352" y2="1409" stroke="#dbe4f0"/>
<text x="68" y="1357" font-size="23" font-weight="750" fill="#162033" class="mono">wb_rd</text>
<text x="68" y="1385" font-size="16" fill="#64748b" class="mono">wb_rd [5 bit]</text>
<rect x="532" y="1341" width="227.5" height="50" fill="#f5f3ff" stroke="#7c3aed" stroke-width="2"/>
<text x="645.75" y="1373" text-anchor="middle" font-size="18" font-weight="650" fill="#162033" class="mono">0x00</text>
<rect x="759.5" y="1341" width="568.75" height="50" fill="#f5f3ff" stroke="#7c3aed" stroke-width="2"/>
<text x="1043.875" y="1373" text-anchor="middle" font-size="18" font-weight="650" fill="#162033" class="mono">0x01</text>
<rect x="1328.25" y="1341" width="113.75" height="50" fill="#f5f3ff" stroke="#7c3aed" stroke-width="2"/>
<text x="1385.125" y="1373" text-anchor="middle" font-size="18" font-weight="650" fill="#162033" class="mono">0x02</text>
<rect x="1442" y="1341" width="341.25" height="50" fill="#f5f3ff" stroke="#7c3aed" stroke-width="2"/>
<text x="1612.625" y="1373" text-anchor="middle" font-size="18" font-weight="650" fill="#162033" class="mono">0x03</text>
<rect x="1783.25" y="1341" width="113.75" height="50" fill="#f5f3ff" stroke="#7c3aed" stroke-width="2"/>
<text x="1840.125" y="1373" text-anchor="middle" font-size="18" font-weight="650" fill="#162033" class="mono">0x04</text>
<rect x="1897" y="1341" width="455" height="50" fill="#f5f3ff" stroke="#7c3aed" stroke-width="2"/>
<text x="2124.5" y="1373" text-anchor="middle" font-size="18" font-weight="650" fill="#162033" class="mono">0x00</text>
<rect x="48" y="1409" width="2304" height="86" fill="#ffffff"/>
<line x1="48" y1="1495" x2="2352" y2="1495" stroke="#dbe4f0"/>
<text x="68" y="1443" font-size="23" font-weight="750" fill="#162033" class="mono">wb_valid</text>
<text x="68" y="1471" font-size="16" fill="#64748b" class="mono">wb_valid [1 bit]</text>
<path d="M 532 1474 L 645.75 1474 L 645.75 1430 L 1442 1430 L 1442 1474 L 1669.5 1474 L 1669.5 1430 L 2010.75 1430 L 2010.75 1474 L 2238.25 1474 L 2238.25 1430 L 2352 1430" fill="none" stroke="#7c3aed" stroke-width="4" stroke-linejoin="round"/>
<rect x="48" y="1495" width="2304" height="86" fill="#f8fafc"/>
<line x1="48" y1="1581" x2="2352" y2="1581" stroke="#dbe4f0"/>
<text x="68" y="1529" font-size="23" font-weight="750" fill="#162033" class="mono">rf_wD</text>
<text x="68" y="1557" font-size="16" fill="#64748b" class="mono">rf_wD [32 bit]</text>
<rect x="532" y="1513" width="227.5" height="50" fill="#f5f3ff" stroke="#7c3aed" stroke-width="2"/>
<text x="645.75" y="1545" text-anchor="middle" font-size="18" font-weight="650" fill="#162033" class="mono">0x00000000</text>
<rect x="759.5" y="1513" width="568.75" height="50" fill="#f5f3ff" stroke="#7c3aed" stroke-width="2"/>
<text x="1043.875" y="1545" text-anchor="middle" font-size="18" font-weight="650" fill="#162033" class="mono">0x00000010</text>
<rect x="1328.25" y="1513" width="113.75" height="50" fill="#f5f3ff" stroke="#7c3aed" stroke-width="2"/>
<text x="1385.125" y="1545" text-anchor="middle" font-size="18" font-weight="650" fill="#162033" class="mono">0x0000002a</text>
<rect x="1442" y="1513" width="113.75" height="50" fill="#f5f3ff" stroke="#7c3aed" stroke-width="2"/>
<text x="1498.875" y="1545" text-anchor="middle" font-size="18" font-weight="650" fill="#162033" class="mono">0x00000001</text>
<rect x="1555.75" y="1513" width="227.5" height="50" fill="#f5f3ff" stroke="#7c3aed" stroke-width="2"/>
<text x="1669.5" y="1545" text-anchor="middle" font-size="18" font-weight="650" fill="#162033" class="mono">0x0000002b</text>
<rect x="1783.25" y="1513" width="113.75" height="50" fill="#f5f3ff" stroke="#7c3aed" stroke-width="2"/>
<text x="1840.125" y="1545" text-anchor="middle" font-size="18" font-weight="650" fill="#162033" class="mono">0x0000002d</text>
<rect x="1897" y="1513" width="113.75" height="50" fill="#f5f3ff" stroke="#7c3aed" stroke-width="2"/>
<text x="1953.875" y="1545" text-anchor="middle" font-size="18" font-weight="650" fill="#162033" class="mono">0x00000014</text>
<rect x="2010.75" y="1513" width="227.5" height="50" fill="#f5f3ff" stroke="#7c3aed" stroke-width="2"/>
<text x="2124.5" y="1545" text-anchor="middle" font-size="18" font-weight="650" fill="#162033" class="mono">0x00000000</text>
<rect x="2238.25" y="1513" width="113.75" height="50" fill="#f5f3ff" stroke="#7c3aed" stroke-width="2"/>
<text x="2295.125" y="1545" text-anchor="middle" font-size="18" font-weight="650" fill="#162033" class="mono">0x00000014</text>
<line x1="759.5" y1="132" x2="759.5" y2="1585" stroke="#dc2626" stroke-width="3" stroke-dasharray="10 8"/>
<rect x="767.5" y="139" width="278" height="38" rx="9" fill="#fef2f2" stroke="#dc2626"/>
<text x="779.5" y="165" font-size="18" font-weight="750" fill="#dc2626">load request / pipeline freeze</text>
<line x1="1214.5" y1="132" x2="1214.5" y2="1585" stroke="#059669" stroke-width="3" stroke-dasharray="10 8"/>
<rect x="1222.5" y="139" width="278" height="38" rx="9" fill="#ecfdf5" stroke="#059669"/>
<text x="1234.5" y="165" font-size="18" font-weight="750" fill="#059669">memory read response</text>
<text x="54" y="1633" font-size="19" fill="#64748b">蓝色：数据/普通控制　橙色：访存或多周期控制　红色虚线：关键事件。数值按十六进制显示。</text>
</svg>