<?xml version="1.0" encoding="UTF-8"?>
<svg xmlns="http://www.w3.org/2000/svg" width="100%" viewBox="0 0 1545 572" role="img" aria-labelledby="title desc">
  <title id="title">miniRV 系统接口图</title>
  <desc id="desc">cpu_top：指令与数据存储器通过请求/应答接口连接 cpu_core</desc>
  <metadata>{&quot;model&quot;:&quot;minirv-system&quot;,&quot;nodes&quot;:3,&quot;edges&quot;:11}</metadata>
  <defs>
    <marker id="arrow-data" viewBox="0 0 10 10" refX="9" refY="5" markerWidth="7" markerHeight="7" orient="auto-start-reverse"><path d="M 0 0 L 10 5 L 0 10 z" fill="#2563eb"/></marker>
<marker id="arrow-control" viewBox="0 0 10 10" refX="9" refY="5" markerWidth="7" markerHeight="7" orient="auto-start-reverse"><path d="M 0 0 L 10 5 L 0 10 z" fill="#d97706"/></marker>
<marker id="arrow-handshake" viewBox="0 0 10 10" refX="9" refY="5" markerWidth="7" markerHeight="7" orient="auto-start-reverse"><path d="M 0 0 L 10 5 L 0 10 z" fill="#7c3aed"/></marker>
<marker id="arrow-target" viewBox="0 0 10 10" refX="9" refY="5" markerWidth="7" markerHeight="7" orient="auto-start-reverse"><path d="M 0 0 L 10 5 L 0 10 z" fill="#dc2626"/></marker>
<marker id="arrow-current" viewBox="0 0 10 10" refX="9" refY="5" markerWidth="7" markerHeight="7" orient="auto-start-reverse"><path d="M 0 0 L 10 5 L 0 10 z" fill="#475569"/></marker>
    <filter id="node-shadow" x="-20%" y="-20%" width="140%" height="150%"><feDropShadow dx="0" dy="3" stdDeviation="4" flood-color="#0f172a" flood-opacity="0.12"/></filter>
    <style><![CDATA[
      text { font-family: Inter, "Noto Sans SC", "Microsoft YaHei", sans-serif; }
      .edge { fill: none; stroke-linecap: round; stroke-linejoin: round; }
      .edge-label text { font-size: 10px; font-weight: 650; letter-spacing: .2px; }
      .stage-band rect { opacity: .64; stroke: #cbd5e1; stroke-width: 1; stroke-dasharray: 5 6; }
      .stage-band text { font-size: 13px; font-weight: 750; fill: #475569; letter-spacing: .8px; }
      .node { filter: url(#node-shadow); }
      .node-body { fill: #ffffff; stroke: #334155; stroke-width: 1.5; }
      .node-header { fill: #f8fafc; stroke: none; }
      .header-cut { stroke: #e2e8f0; stroke-width: 1; }
      .node-title { font-size: 16px; font-weight: 760; fill: #0f172a; }
      .node-subtitle { font-size: 10.5px; fill: #64748b; }
      .port circle { fill: #ffffff; stroke: #475569; stroke-width: 1.5; }
      .port text { font-size: 10.5px; font-weight: 700; fill: #334155; }
      .node-core .node-body { stroke: #4f46e5; stroke-width: 2.2; }
      .node-memory .node-body { stroke: #0284c7; }
      .node-register .node-body { stroke: #7c3aed; }
      .node-mux .node-body { stroke: #d97706; }
      .node-external .node-body { stroke: #64748b; stroke-dasharray: 7 5; }
      .node-constant .node-body { stroke: #64748b; stroke-dasharray: 3 3; }
      .status-partial .node-body { stroke: #f59e0b; stroke-dasharray: 8 5; }
      .badge { font-size: 10px; font-weight: 800; fill: #b45309; }
      .legend text { font-size: 11px; fill: #475569; }
      .note { font-size: 11px; fill: #64748b; }
    ]]></style>
  </defs>
  <rect width="1545" height="572" fill="#ffffff"/>
  <g transform="translate(70 0)">
    <text x="0" y="42" font-size="26" font-weight="800" fill="#0f172a">miniRV 系统接口图</text>
    <text x="0" y="68" font-size="13" fill="#64748b">cpu_top：指令与数据存储器通过请求/应答接口连接 cpu_core</text>
    <g transform="translate(0 91)"><g class="legend"><g transform="translate(0 0)"><path d="M 0 8 H 28" stroke="#2563eb" stroke-width="2.8" stroke-dasharray="" marker-end="url(#arrow-data)"/><text x="38" y="12">32-bit data / 数据</text></g><g transform="translate(172 0)"><path d="M 0 8 H 28" stroke="#d97706" stroke-width="1.8" stroke-dasharray="" marker-end="url(#arrow-control)"/><text x="38" y="12">control / 控制</text></g><g transform="translate(318 0)"><path d="M 0 8 H 28" stroke="#7c3aed" stroke-width="2" stroke-dasharray="7 5" marker-end="url(#arrow-handshake)"/><text x="38" y="12">handshake / 跨周期握手</text></g></g></g>
  </g>
  <g transform="translate(70 138)">
    <g class="stage-band"><rect x="10" y="0" width="242" height="336" rx="18" fill="#e0f2fe"/><text x="26" y="25">Instruction memory</text></g>
<g class="stage-band"><rect x="493" y="0" width="367" height="336" rx="18" fill="#eef2ff"/><text x="509" y="25">CPU core</text></g>
<g class="stage-band"><rect x="1153" y="0" width="242" height="336" rx="18" fill="#ecfdf5"/><text x="1169" y="25">Data memory</text></g>
    <g class="edges"><path class="edge edge-handshake" d="M 511 130 L 432 130 L 432 154 L 260 154 L 260 184 L 234 184" stroke="#7c3aed" stroke-width="2" stroke-dasharray="7 5" marker-end="url(#arrow-handshake)"/>
<g class="edge-label" transform="translate(343 158)"><rect width="59" height="20" rx="6" fill="#ffffff" fill-opacity="0.94" stroke="#7c3aed" stroke-opacity="0.28"/><text x="29.5" y="13.5" text-anchor="middle" fill="#7c3aed">request</text></g>
<path class="edge edge-data" d="M 511 178 L 432 178 L 432 190 L 274 190 L 274 210 L 234 210" stroke="#2563eb" stroke-width="2.8" stroke-dasharray="" marker-end="url(#arrow-data)"/>
<g class="edge-label" transform="translate(343.5 194)"><rect width="58" height="20" rx="6" fill="#ffffff" fill-opacity="0.94" stroke="#2563eb" stroke-opacity="0.28"/><text x="29" y="13.5" text-anchor="middle" fill="#2563eb">取指地址</text></g>
<path class="edge edge-handshake" d="M 234 236 L 260 236 L 260 226 L 511 226" stroke="#7c3aed" stroke-width="2" stroke-dasharray="7 5" marker-end="url(#arrow-handshake)"/>
<g class="edge-label" transform="translate(349 230)"><rect width="47" height="20" rx="6" fill="#ffffff" fill-opacity="0.94" stroke="#7c3aed" stroke-opacity="0.28"/><text x="23.5" y="13.5" text-anchor="middle" fill="#7c3aed">valid</text></g>
<path class="edge edge-data" d="M 234 262 L 432 262 L 432 274 L 511 274" stroke="#2563eb" stroke-width="2.8" stroke-dasharray="" marker-end="url(#arrow-data)"/>
<g class="edge-label" transform="translate(353.5 266)"><rect width="38" height="20" rx="6" fill="#ffffff" fill-opacity="0.94" stroke="#2563eb" stroke-opacity="0.28"/><text x="19" y="13.5" text-anchor="middle" fill="#2563eb">指令</text></g>
<path class="edge edge-control" d="M 842 130 L 868 130 L 868 58 L 1106 58 L 1106 94 L 1171 94" stroke="#d97706" stroke-width="1.8" stroke-dasharray="" marker-end="url(#arrow-control)"/>
<g class="edge-label" transform="translate(967 62)"><rect width="82" height="20" rx="6" fill="#ffffff" fill-opacity="0.94" stroke="#d97706" stroke-opacity="0.28"/><text x="41" y="13.5" text-anchor="middle" fill="#d97706">read enable</text></g>
<path class="edge edge-data" d="M 842 154 L 882 154 L 882 94 L 1092 94 L 1092 118 L 1171 118" stroke="#2563eb" stroke-width="2.8" stroke-dasharray="" marker-end="url(#arrow-data)"/>
<g class="edge-label" transform="translate(979 98)"><rect width="58" height="20" rx="6" fill="#ffffff" fill-opacity="0.94" stroke="#2563eb" stroke-opacity="0.28"/><text x="29" y="13.5" text-anchor="middle" fill="#2563eb">访存地址</text></g>
<path class="edge edge-handshake" d="M 1171 142 L 1092 142 L 1092 130 L 896 130 L 896 178 L 842 178" stroke="#7c3aed" stroke-width="2" stroke-dasharray="7 5" marker-end="url(#arrow-handshake)"/>
<g class="edge-label" transform="translate(970 134)"><rect width="76" height="20" rx="6" fill="#ffffff" fill-opacity="0.94" stroke="#7c3aed" stroke-opacity="0.28"/><text x="38" y="13.5" text-anchor="middle" fill="#7c3aed">read valid</text></g>
<path class="edge edge-data" d="M 1171 166 L 910 166 L 910 202 L 842 202" stroke="#2563eb" stroke-width="2.8" stroke-dasharray="" marker-end="url(#arrow-data)"/>
<g class="edge-label" transform="translate(984 170)"><rect width="48" height="20" rx="6" fill="#ffffff" fill-opacity="0.94" stroke="#2563eb" stroke-opacity="0.28"/><text x="24" y="13.5" text-anchor="middle" fill="#2563eb">读数据</text></g>
<path class="edge edge-control" d="M 842 226 L 924 226 L 924 202 L 1092 202 L 1092 190 L 1171 190" stroke="#d97706" stroke-width="1.8" stroke-dasharray="" marker-end="url(#arrow-control)"/>
<g class="edge-label" transform="translate(964 206)"><rect width="88" height="20" rx="6" fill="#ffffff" fill-opacity="0.94" stroke="#d97706" stroke-opacity="0.28"/><text x="44" y="13.5" text-anchor="middle" fill="#d97706">write enable</text></g>
<path class="edge edge-data" d="M 842 250 L 868 250 L 868 238 L 1092 238 L 1092 214 L 1171 214" stroke="#2563eb" stroke-width="2.8" stroke-dasharray="" marker-end="url(#arrow-data)"/>
<g class="edge-label" transform="translate(984 242)"><rect width="48" height="20" rx="6" fill="#ffffff" fill-opacity="0.94" stroke="#2563eb" stroke-opacity="0.28"/><text x="24" y="13.5" text-anchor="middle" fill="#2563eb">写数据</text></g>
<path class="edge edge-handshake" d="M 1171 238 L 1106 238 L 1106 274 L 842 274" stroke="#7c3aed" stroke-width="2" stroke-dasharray="7 5" marker-end="url(#arrow-handshake)"/>
<g class="edge-label" transform="translate(958 278)"><rect width="100" height="20" rx="6" fill="#ffffff" fill-opacity="0.94" stroke="#7c3aed" stroke-opacity="0.28"/><text x="50" y="13.5" text-anchor="middle" fill="#7c3aed">write response</text></g></g>
    <g class="nodes"><g id="node-irom" class="node node-memory" transform="translate(36 126)"><rect class="node-body" width="190" height="150" rx="14"/><rect class="node-header" x="1" y="1" width="188" height="43" rx="13"/><path class="header-cut" d="M 1 43 H 189"/><text class="node-title" x="16" y="23">Inst_ROM</text><text class="node-subtitle" x="16" y="38">取指接口适配 + IROM</text><g class="port port-east"><circle cx="194" cy="58" r="4"/><text x="176" y="62" text-anchor="end">inst_rreq</text></g>
<g class="port port-east"><circle cx="194" cy="84" r="4"/><text x="176" y="88" text-anchor="end">inst_addr [31:0]</text></g>
<g class="port port-east"><circle cx="194" cy="110" r="4"/><text x="176" y="114" text-anchor="end">inst_valid</text></g>
<g class="port port-east"><circle cx="194" cy="136" r="4"/><text x="176" y="140" text-anchor="end">inst_out [31:0]</text></g></g>
<g id="node-core" class="node node-core" transform="translate(519 72)"><rect class="node-body" width="315" height="216" rx="14"/><rect class="node-header" x="1" y="1" width="313" height="43" rx="13"/><path class="header-cut" d="M 1 43 H 314"/><text class="node-title" x="16" y="23">cpu_core</text><text class="node-subtitle" x="16" y="38">IF · ID · EX · MEM · WB</text><g class="port port-west"><circle cx="-4" cy="58" r="4"/><text x="14" y="62" text-anchor="start">ifetch_req</text></g>
<g class="port port-west"><circle cx="-4" cy="106" r="4"/><text x="14" y="110" text-anchor="start">ifetch_addr [31:0]</text></g>
<g class="port port-west"><circle cx="-4" cy="154" r="4"/><text x="14" y="158" text-anchor="start">ifetch_valid</text></g>
<g class="port port-west"><circle cx="-4" cy="202" r="4"/><text x="14" y="206" text-anchor="start">ifetch_inst [31:0]</text></g>
<g class="port port-east"><circle cx="319" cy="58" r="4"/><text x="301" y="62" text-anchor="end">daccess_ren [3:0]</text></g>
<g class="port port-east"><circle cx="319" cy="82" r="4"/><text x="301" y="86" text-anchor="end">daccess_addr [31:0]</text></g>
<g class="port port-east"><circle cx="319" cy="106" r="4"/><text x="301" y="110" text-anchor="end">daccess_rvalid</text></g>
<g class="port port-east"><circle cx="319" cy="130" r="4"/><text x="301" y="134" text-anchor="end">daccess_rdata [31:0]</text></g>
<g class="port port-east"><circle cx="319" cy="154" r="4"/><text x="301" y="158" text-anchor="end">daccess_wen [3:0]</text></g>
<g class="port port-east"><circle cx="319" cy="178" r="4"/><text x="301" y="182" text-anchor="end">daccess_wdata [31:0]</text></g>
<g class="port port-east"><circle cx="319" cy="202" r="4"/><text x="301" y="206" text-anchor="end">daccess_wresp</text></g></g>
<g id="node-dram" class="node node-memory" transform="translate(1179 36)"><rect class="node-body" width="190" height="216" rx="14"/><rect class="node-header" x="1" y="1" width="188" height="43" rx="13"/><path class="header-cut" d="M 1 43 H 189"/><text class="node-title" x="16" y="23">Data_RAM</text><text class="node-subtitle" x="16" y="38">访存接口适配 + DRAM</text><g class="port port-west"><circle cx="-4" cy="58" r="4"/><text x="14" y="62" text-anchor="start">data_ren [3:0]</text></g>
<g class="port port-west"><circle cx="-4" cy="82" r="4"/><text x="14" y="86" text-anchor="start">data_addr [31:0]</text></g>
<g class="port port-west"><circle cx="-4" cy="106" r="4"/><text x="14" y="110" text-anchor="start">data_valid</text></g>
<g class="port port-west"><circle cx="-4" cy="130" r="4"/><text x="14" y="134" text-anchor="start">data_rdata [31:0]</text></g>
<g class="port port-west"><circle cx="-4" cy="154" r="4"/><text x="14" y="158" text-anchor="start">data_wen [3:0]</text></g>
<g class="port port-west"><circle cx="-4" cy="178" r="4"/><text x="14" y="182" text-anchor="start">data_wdata [31:0]</text></g>
<g class="port port-west"><circle cx="-4" cy="202" r="4"/><text x="14" y="206" text-anchor="start">data_wresp</text></g></g></g>
  </g>
  <g transform="translate(70 509)">
    <text class="note" x="0" y="0">• cpu_clk 与高有效 cpu_rst 同时送入三个模块，图中为降低拥挤统一省略。</text>
<text class="note" x="0" y="21">• 紫色虚线表示跨周期握手；蓝色粗线表示数据总线；橙色表示控制/使能。</text>
  </g>
</svg>